<svg xmlns="http://www.w3.org/2000/svg" version="1.1" xmlns:xlink="http://www.w3.org/1999/xlink" xmlns:svgjs="http://svgjs.dev/svgjs" width="1000" height="750" viewBox="0 0 1000 750"><rect width="1000" height="750" fill="#ffffff"></rect><g transform="matrix(0.834,0,0,0.834,82.49454878776652,115.4193570850203)"><svg viewBox="0 0 396 247" data-background-color="#ffffff" preserveAspectRatio="xMidYMid meet" height="623" width="1000" xmlns="http://www.w3.org/2000/svg" xmlns:xlink="http://www.w3.org/1999/xlink"><g id="tight-bounds" transform="matrix(1,0,0,1,0.239998417319498,-0.09999999999999432)"><svg viewBox="0 0 395.52 247.2" height="247.2" width="395.52"><g><svg></svg></g><g><svg viewBox="0 0 395.52 247.2" height="247.2" width="395.52"><g><g><path xmlns="http://www.w3.org/2000/svg" d="M108.423 46.082v26.079h-38.334l0 24.549-31.4 0v-24.549h-37.679v-26.079zM70.089 201.118h-31.4l0-50.628 31.4 0zM228.527 46.082v26.079h-38.333l0 24.549-31.4 0v-24.549h-37.724v-26.079zM190.194 201.118h-31.4v-50.628l31.4 0zM330.621 46.082l9.472 50.628-45.229 0 9.459-50.628zM363.547 46.082h30.963l-9 50.628-29.601 0zM366.948 201.118h-31.443l-10.029-50.628 50.473 0zM299.526 201.118h-31.487l-9.043-50.628 50.438 0zM240.346 46.082h31.182l7.599 50.628-29.738 0z" fill="#000000" fill-rule="nonzero" stroke="none" stroke-width="1" stroke-linecap="butt" stroke-linejoin="miter" stroke-miterlimit="10" stroke-dasharray="" stroke-dashoffset="0" font-family="none" font-weight="none" font-size="none" text-anchor="none" style="mix-blend-mode: normal" data-fill-palette-color="tertiary"></path></g></g><g transform="matrix(1,0,0,1,0,102.78482368631634)"><svg viewBox="0 0 395.52 41.630352627367294" height="41.630352627367294" width="395.52"><g><svg viewBox="0 0 395.52 41.630352627367294" height="41.630352627367294" width="395.52"><g><svg viewBox="0 0 395.52 41.630352627367294" height="41.630352627367294" width="395.52"><g><svg viewBox="0 0 395.52 41.630352627367294" height="41.630352627367294" width="395.52"><g id="textblocktransform"><svg viewBox="0 0 395.52 41.630352627367294" height="41.630352627367294" width="395.52" id="textblock"><g><svg viewBox="0 0 395.52 41.630352627367294" height="41.630352627367294" width="395.52"><g transform="matrix(1,0,0,1,0,0)"><svg width="395.52" viewBox="1.25 -37.5 457.5899963378906 48.16999816894531" height="41.630352627367294" data-palette-color="#2257bf"><path d="M25.88-35.55L25.88-29.57 17.09-29.57 17.09 0 9.89 0 9.89-29.57 1.25-29.57 1.25-35.55 25.88-35.55ZM23.78-12.38L23.78-14.06Q23.78-20.07 26.61-23.49 29.44-26.9 34.45-26.9L34.45-26.9Q39.5-26.9 42.33-23.49 45.16-20.07 45.16-14.01L45.16-14.01 45.16-12.33Q45.16-6.3 42.36-2.91 39.55 0.49 34.49 0.49L34.49 0.49Q29.42 0.49 26.6-2.92 23.78-6.32 23.78-12.38L23.78-12.38ZM30.71-14.06L30.71-12.33Q30.71-5.25 34.49-5.25L34.49-5.25Q37.99-5.25 38.25-11.16L38.25-11.16 38.28-14.06Q38.28-17.68 37.28-19.42 36.28-21.17 34.45-21.17L34.45-21.17Q32.69-21.17 31.7-19.42 30.71-17.68 30.71-14.06L30.71-14.06ZM49.48-26.42L55.95-26.42 56.15-23.97Q58.47-26.9 62.28-26.9L62.28-26.9Q66.23-26.9 67.87-23.34L67.87-23.34Q70.14-26.9 74.34-26.9L74.34-26.9Q81.27-26.9 81.44-17.31L81.44-17.31 81.44 0 74.53 0 74.53-16.87Q74.53-19.17 73.9-20.14 73.26-21.12 71.75-21.12L71.75-21.12Q69.82-21.12 68.87-18.75L68.87-18.75 68.92-17.92 68.92 0 62.01 0 62.01-16.82Q62.01-19.09 61.4-20.1 60.79-21.12 59.22-21.12L59.22-21.12Q57.44-21.12 56.39-19.19L56.39-19.19 56.39 0 49.48 0 49.48-26.42ZM86.56-26.42L93.03-26.42 93.23-23.97Q95.55-26.9 99.36-26.9L99.36-26.9Q103.31-26.9 104.95-23.34L104.95-23.34Q107.22-26.9 111.42-26.9L111.42-26.9Q118.35-26.9 118.52-17.31L118.52-17.31 118.52 0 111.61 0 111.61-16.87Q111.61-19.17 110.98-20.14 110.34-21.12 108.83-21.12L108.83-21.12Q106.9-21.12 105.95-18.75L105.95-18.75 106-17.92 106 0 99.09 0 99.09-16.82Q99.09-19.09 98.48-20.1 97.87-21.12 96.31-21.12L96.31-21.12Q94.52-21.12 93.47-19.19L93.47-19.19 93.47 0 86.56 0 86.56-26.42ZM128.92-26.42L132.09-11.5 135.61-26.42 142.98-26.42 134.29 3.96Q132.34 10.67 126.94 10.67L126.94 10.67Q125.7 10.67 124.11 10.21L124.11 10.21 124.11 4.81 124.92 4.83Q126.53 4.83 127.35 4.21 128.16 3.59 128.58 2.05L128.58 2.05 129.12 0.27 121.5-26.42 128.92-26.42ZM179.36-35.55L179.36-29.57 170.57-29.57 170.57 0 163.36 0 163.36-29.57 154.72-29.57 154.72-35.55 179.36-35.55ZM191.63 0.49L191.63 0.49Q186.31 0.49 183.33-2.69 180.35-5.86 180.35-11.77L180.35-11.77 180.35-13.87Q180.35-20.12 183.09-23.51 185.82-26.9 190.92-26.9L190.92-26.9Q195.91-26.9 198.42-23.72 200.93-20.53 200.98-14.28L200.98-14.28 200.98-10.89 187.24-10.89Q187.38-7.96 188.53-6.6 189.68-5.25 192.07-5.25L192.07-5.25Q195.54-5.25 197.86-7.62L197.86-7.62 200.57-3.44Q199.3-1.68 196.88-0.6 194.46 0.49 191.63 0.49ZM187.29-15.72L187.29-15.72 194.2-15.72 194.2-16.36Q194.15-18.73 193.42-19.95 192.68-21.17 190.88-21.17 189.07-21.17 188.25-19.87 187.43-18.58 187.29-15.72ZM214.43-5.25L214.43-5.25Q217.44-5.25 217.48-9.16L217.48-9.16 223.98-9.16Q223.93-4.83 221.32-2.17 218.71 0.49 214.58 0.49L214.58 0.49Q209.48 0.49 206.79-2.69 204.11-5.86 204.06-12.04L204.06-12.04 204.06-14.14Q204.06-20.36 206.71-23.63 209.36-26.9 214.53-26.9L214.53-26.9Q218.9-26.9 221.42-24.21 223.93-21.51 223.98-16.55L223.98-16.55 217.48-16.55Q217.46-18.77 216.75-19.97 216.04-21.17 214.41-21.17L214.41-21.17Q212.6-21.17 211.82-19.89 211.04-18.6 210.99-14.92L210.99-14.92 210.99-12.23Q210.99-9.01 211.31-7.73 211.63-6.45 212.36-5.85 213.09-5.25 214.43-5.25ZM234.62-37.5L234.62-24.1Q236.87-26.9 240.14-26.9L240.14-26.9Q243.75-26.9 245.63-24.37 247.51-21.83 247.54-16.8L247.54-16.8 247.54 0 240.6 0 240.6-16.72Q240.6-19.04 239.88-20.08 239.16-21.12 237.55-21.12L237.55-21.12Q235.67-21.12 234.62-19.38L234.62-19.38 234.62 0 227.71 0 227.71-37.5 234.62-37.5ZM283.27-35.55L287.45-13.21 290.82-35.55 297.92-35.55 291.6 0 284.4 0 280.25-20.95 276.14 0 268.92 0 262.57-35.55 269.72-35.55 273.07-13.23 277.24-35.55 283.27-35.55ZM299.9-12.38L299.9-14.06Q299.9-20.07 302.73-23.49 305.56-26.9 310.57-26.9L310.57-26.9Q315.62-26.9 318.45-23.49 321.28-20.07 321.28-14.01L321.28-14.01 321.28-12.33Q321.28-6.3 318.48-2.91 315.67 0.49 310.61 0.49L310.61 0.49Q305.54 0.49 302.72-2.92 299.9-6.32 299.9-12.38L299.9-12.38ZM306.83-14.06L306.83-12.33Q306.83-5.25 310.61-5.25L310.61-5.25Q314.11-5.25 314.37-11.16L314.37-11.16 314.4-14.06Q314.4-17.68 313.4-19.42 312.4-21.17 310.57-21.17L310.57-21.17Q308.81-21.17 307.82-19.42 306.83-17.68 306.83-14.06L306.83-14.06ZM338.69-26.59L338.61-19.75 336.32-19.95Q333.49-19.95 332.49-17.46L332.49-17.46 332.49 0 325.55 0 325.55-26.42 332.07-26.42 332.27-23.56Q333.9-26.9 336.78-26.9L336.78-26.9Q337.96-26.9 338.69-26.59L338.69-26.59ZM355.75 0L350.92-10.18 349.06-8.11 349.06 0 342.15 0 342.15-37.5 349.06-37.5 349.06-17.24 349.92-18.51 354.7-26.42 362.93-26.42 355.26-15.53 363.66 0 355.75 0ZM377.77-7.08L377.77-7.08Q377.77-7.96 376.93-8.7 376.09-9.45 373.18-10.72L373.18-10.72Q368.91-12.45 367.31-14.31 365.71-16.16 365.71-18.92L365.71-18.92Q365.71-22.39 368.21-24.65 370.71-26.9 374.84-26.9L374.84-26.9Q379.19-26.9 381.8-24.66 384.41-22.41 384.41-18.63L384.41-18.63 377.5-18.63Q377.5-21.85 374.82-21.85L374.82-21.85Q373.72-21.85 373.01-21.17 372.3-20.48 372.3-19.26L372.3-19.26Q372.3-18.38 373.08-17.71 373.86-17.04 376.77-15.8L376.77-15.8Q380.99-14.23 382.74-12.32 384.48-10.4 384.48-7.35L384.48-7.35Q384.48-3.81 381.82-1.66 379.16 0.49 374.84 0.49L374.84 0.49Q371.94 0.49 369.71-0.65 367.49-1.78 366.23-3.81 364.98-5.83 364.98-8.18L364.98-8.18 371.54-8.18Q371.59-6.37 372.39-5.47 373.18-4.57 374.99-4.57L374.99-4.57Q377.77-4.57 377.77-7.08ZM395.52-37.5L395.52-24.1Q397.76-26.9 401.03-26.9L401.03-26.9Q404.65-26.9 406.53-24.37 408.41-21.83 408.43-16.8L408.43-16.8 408.43 0 401.5 0 401.5-16.72Q401.5-19.04 400.78-20.08 400.06-21.12 398.45-21.12L398.45-21.12Q396.57-21.12 395.52-19.38L395.52-19.38 395.52 0 388.61 0 388.61-37.5 395.52-37.5ZM412.58-12.38L412.58-14.06Q412.58-20.07 415.41-23.49 418.24-26.9 423.25-26.9L423.25-26.9Q428.3-26.9 431.13-23.49 433.97-20.07 433.97-14.01L433.97-14.01 433.97-12.33Q433.97-6.3 431.16-2.91 428.35 0.49 423.3 0.49L423.3 0.49Q418.22 0.49 415.4-2.92 412.58-6.32 412.58-12.38L412.58-12.38ZM419.51-14.06L419.51-12.33Q419.51-5.25 423.3-5.25L423.3-5.25Q426.79-5.25 427.06-11.16L427.06-11.16 427.08-14.06Q427.08-17.68 426.08-19.42 425.08-21.17 423.25-21.17L423.25-21.17Q421.49-21.17 420.5-19.42 419.51-17.68 419.51-14.06L419.51-14.06ZM458.84-14.4L458.84-12.38Q458.84-6.15 456.71-2.83 454.57 0.49 450.35 0.49L450.35 0.49Q447.12 0.49 445.17-2.12L445.17-2.12 445.17 10.16 438.26 10.16 438.26-26.42 444.66-26.42 444.9-24Q446.88-26.9 450.3-26.9L450.3-26.9Q454.52-26.9 456.66-23.83 458.79-20.75 458.84-14.4L458.84-14.4ZM451.96-12.38L451.96-14.11Q451.96-17.94 451.11-19.53 450.27-21.12 448.27-21.12L448.27-21.12Q446.15-21.12 445.17-19.34L445.17-19.34 445.17-6.96Q446.1-5.25 448.32-5.25L448.32-5.25Q450.37-5.25 451.16-6.98 451.96-8.72 451.96-12.38L451.96-12.38Z" opacity="1" transform="matrix(1,0,0,1,0,0)" fill="#000000" class="undefined-text-0" data-fill-palette-color="primary" id="text-0"></path></svg></g></svg></g></svg></g></svg></g></svg></g></svg></g></svg></g></svg></g><defs></defs></svg><rect width="395.52" height="247.2" fill="none" stroke="none" visibility="hidden"></rect></g></svg></g></svg>